#!OML:ASF F:\VICON\USERDATA\INSTALL\rory3\rory3.ASF
:FULLY-SPECIFIED
:DEGREES
1
root 3.7986 17.5297 3.90101 20.3486 -12.2665 2.04487
lowerback -12.1357 2.76219 3.84583
upperback -14.9228 3.34601 -0.363413
thorax -9.023 1.22722 -2.37645
lowerneck -2.69536 18.3071 13.3094
upperneck 10.6074 23.2637 4.76224
head 4.5768 12.1745 0.857664
rclavicle -1.49089e-014 -1.27222e-014
rhumerus 0.927253 -19.3934 23.4765
rradius 122.266
rwrist -57.1139
rhand -6.19493 -47.3092
rfingers 7.12502
rthumb 19.645 -76.3366
lclavicle -1.49089e-014 -1.27222e-014
lhumerus 27.2586 17.8424 -26.4884
lradius 33.5414
lwrist 47.6487
lhand -26.3837 -19.5226
lfingers 7.12502
lthumb 0.175183 10.4571
rfemur -3.16362 2.6607 -6.25982
rtibia 6.11529
rfoot -42.6698 -7.55748
rtoes 55.6242
lfemur -20.4141 1.19399 -30.9094
ltibia 12.1257
lfoot -11.2761 8.5819
ltoes 6.55281
2
root 3.80211 17.5293 3.90757 20.4308 -12.2056 1.9709
lowerback -12.2402 2.78175 3.94072
upperback -14.8688 3.3598 -0.377876
thorax -8.89595 1.22823 -2.43728
lowerneck -2.83889 18.3783 13.2047
upperneck 10.4115 23.3441 4.80623
head 4.5216 12.2039 0.886356
rclavicle 1.35174e-014 1.59028e-015
rhumerus 0.837074 -19.5723 23.5393
rradius 122.255
rwrist -57.2034
rhand -6.32905 -47.292
rfingers 7.12502
rthumb 19.516 -76.3326
lclavicle 1.35174e-014 1.59028e-015
lhumerus 27.3844 18.2327 -26.255
lradius 33.3787
lwrist 47.2363
lhand -25.5821 -19.2568
lfingers 7.12502
lthumb 0.949331 10.7209
rfemur -2.80868 2.6013 -6.20516
rtibia 5.3934
rfoot -42.7718 -8.45556
rtoes 55.51
lfemur -20.6039 1.24447 -30.8644
ltibia 12.4038
lfoot -11.428 8.49878
ltoes 6.60841
3
root 3.81254 17.5265 3.91344 20.5135 -11.9738 1.93518
lowerback -12.4602 2.75862 4.28681
upperback -15.1311 3.30088 -0.368619
thorax -9.07609 1.15471 -2.61985
lowerneck -1.4244 18.265 13.1515
upperneck 9.6472 23.4551 4.76275
head 4.50372 12.2234 0.755697
rclavicle -1.55052e-014 3.18055e-014
rhumerus 1.16145 -19.1707 23.5388
rradius 122.313
rwrist -57.3588
rhand -6.49298 -47.0322
rfingers 7.12502
rthumb 19.3584 -76.0886
lclavicle -1.55052e-014 3.18055e-014
lhumerus 27.4563 17.5549 -26.3289
lradius 33.3586
lwrist 47.0763
lhand -25.7058 -19.3831
lfingers 7.12502
lthumb 0.829845 10.5951
rfemur -2.40826 2.37926 -6.16654
rtibia 4.77215
rfoot -42.8371 -9.04849
rtoes 55.3993
lfemur -20.7458 1.24229 -30.865
ltibia 12.6291
lfoot -11.6986 8.26646
ltoes 6.84685
4
root 3.80364 17.5296 3.92394 20.5697 -12.3353 1.77163
lowerback -12.67 2.89645 4.18534
upperback -15.0528 3.47689 -0.330263
thorax -8.8604 1.26267 -2.50047
lowerneck -1.47354 18.2419 13.2656
upperneck 10.0031 23.4138 4.63611
head 4.21033 12.2173 0.67672
rclavicle -2.5842e-015 -3.18055e-015
rhumerus 0.989343 -19.1914 23.6649
rradius 122.353
rwrist -57.2672
rhand -6.47014 -46.7524
rfingers 7.12502
rthumb 19.3804 -75.8066
lclavicle -2.5842e-015 -3.18055e-015
lhumerus 27.3811 17.355 -26.5398
lradius 33.4289
lwrist 47.238
lhand -26.7248 -19.7198
lfingers 7.12502
lthumb -0.15433 10.2599
rfemur -2.23646 2.73028 -6.09705
rtibia 4.05507
rfoot -43.0884 -9.23751
rtoes 55.4163
lfemur -20.8896 1.27961 -30.6924
ltibia 12.836
lfoot -11.8567 8.65231
ltoes 7.00463
5
root 3.81546 17.5267 3.92988 20.6353 -12.0793 1.62261
lowerback -12.7481 2.90259 4.55139
upperback -15.0578 3.45694 -0.364631
thorax -8.80924 1.21586 -2.73764
lowerneck -1.29031 18.2103 13.3991
upperneck 9.82588 23.4128 4.4911
head 4.15828 12.2069 0.596791
rclavicle 5.76476e-015 1.19271e-014
rhumerus 0.940461 -19.1517 23.6076
rradius 122.331
rwrist -57.0697
rhand -6.249 -46.7783
rfingers 7.12502
rthumb 19.593 -75.811
lclavicle 5.76476e-015 1.19271e-014
lhumerus 27.3445 17.192 -26.671
lradius 33.5203
lwrist 47.5075
lhand -27.5822 -20.0323
lfingers 7.12502
lthumb -0.982365 9.94523
rfemur -1.90329 2.54201 -5.93209
rtibia 3.67617
rfoot -43.136 -9.58958
rtoes 55.3768
lfemur -20.9348 1.36914 -30.5991
ltibia 12.9573
lfoot -11.9195 8.43009
ltoes 6.697
6
root 3.81581 17.5271 3.9293 20.6663 -12.0849 1.61577
lowerback -12.7425 2.94216 4.5472
upperback -15.1066 3.50851 -0.424572
thorax -8.8622 1.23628 -2.79844
lowerneck -0.9731 18.1396 13.5314
upperneck 9.25916 23.3859 4.38973
head 4.37995 12.1694 0.522695
rclavicle -3.47873e-014 5.56597e-015
rhumerus 0.882058 -19.032 23.5857
rradius 122.292
rwrist -57.0183
rhand -6.34195 -46.9862
rfingers 7.12502
rthumb 19.5036 -76.028
lclavicle -3.47873e-014 5.56597e-015
lhumerus 27.5089 17.2361 -26.5756
lradius 33.5295
lwrist 47.6023
lhand -27.402 -20.1484
lfingers 7.12502
lthumb -0.808344 9.82981
rfemur -1.79949 2.53634 -5.93134
rtibia 3.44381
rfoot -43.1971 -9.55471
rtoes 55.3563
lfemur -21.0229 1.43833 -30.61
ltibia 13.026
lfoot -11.888 8.38504
ltoes 6.56468
7
root 3.81093 17.5281 3.92565 20.6687 -12.2503 1.71339
lowerback -12.7587 2.99475 4.28886
upperback -15.078 3.58991 -0.488622
thorax -8.81852 1.30093 -2.71758
lowerneck -0.952963 18.0915 13.6982
upperneck 9.18602 23.3285 4.26896
head 4.3882 12.138 0.458275
rclavicle -4.51241e-014 -3.02153e-014
rhumerus 0.722352 -19.0814 23.6791
rradius 122.276
rwrist -57.0485
rhand -6.36206 -47.0575
rfingers 7.12502
rthumb 19.4843 -76.1013
lclavicle -4.51241e-014 -3.02153e-014
lhumerus 27.6503 17.4245 -26.4622
lradius 33.5212
lwrist 47.6663
lhand -26.6119 -19.9762
lfingers 7.12502
lthumb -0.0452661 10.0035
rfemur -1.58465 2.63669 -6.07935
rtibia 2.85928
rfoot -43.4394 -9.29743
rtoes 55.4633
lfemur -21.1499 1.52372 -30.7238
ltibia 13.1373
lfoot -11.9374 8.40713
ltoes 6.75086
8
root 3.8155 17.5249 3.93037 20.6073 -12.1234 1.76778
lowerback -12.8678 2.87391 4.32808
upperback -15.0359 3.4245 -0.373287
thorax -8.72734 1.22362 -2.61882
lowerneck -0.757223 18.1341 13.4871
upperneck 9.23467 23.4247 4.30392
head 4.33812 12.1831 0.479886
rclavicle -2.18663e-015 3.10104e-014
rhumerus 1.15656 -19.2366 23.4692
rradius 122.205
rwrist -56.8974
rhand -5.90078 -46.8774
rfingers 7.12502
rthumb 19.9277 -75.8757
lclavicle -2.18663e-015 3.10104e-014
lhumerus 27.2577 17.193 -26.6574
lradius 33.5879
lwrist 47.828
lhand -25.9069 -19.8443
lfingers 7.12502
lthumb 0.635634 10.1345
rfemur -1.51685 2.53315 -6.10351
rtibia 3.02989
rfoot -43.3271 -9.33438
rtoes 55.5224
lfemur -21.039 1.62334 -30.8155
ltibia 13.1001
lfoot -12.0247 8.16735
ltoes 6.89468
9
root 3.82069 17.5241 3.93467 20.5581 -11.9633 1.72766
lowerback -12.8664 2.88921 4.36518
upperback -14.7485 3.43594 -0.448129
thorax -8.38399 1.23713 -2.71009
lowerneck -2.21734 18.1474 13.466
upperneck 10.1489 23.1603 4.46788
head 4.40586 12.096 0.678696
rclavicle 2.44505e-014 5.56597e-015
rhumerus 0.773497 -19.5722 23.4922
rradius 122.127
rwrist -56.5937
rhand -5.73116 -46.8039
rfingers 7.12502
rthumb 20.0908 -75.7852
lclavicle 2.44505e-014 5.56597e-015
lhumerus 27.2004 17.6627 -26.7629
lradius 33.5833
lwrist 47.9601
lhand -25.7273 -20.0842
lfingers 7.12502
lthumb 0.809149 9.89404
rfemur -1.56262 2.4355 -6.00416
rtibia 3.36112
rfoot -43.0967 -9.78563
rtoes 55.3595
lfemur -20.9095 1.64969 -30.7825
ltibia 13.0263
lfoot -12.0094 8.00017
ltoes 6.83132
10
root 3.81782 17.5264 3.93383 20.5814 -12.0703 1.72113
lowerback -12.8973 2.94639 4.34139
upperback -14.997 3.51395 -0.473923
thorax -8.65169 1.26477 -2.72606
lowerneck -1.20391 17.9869 13.666
upperneck 10.0046 23.1068 4.47888
head 4.22306 12.0718 0.54878
rclavicle -5.24792e-014 -3.81667e-014
rhumerus 0.903051 -18.9746 23.3949
rradius 122.188
rwrist -56.4698
rhand -5.7315 -46.9303
rfingers 7.12502
rthumb 20.0904 -75.9115
lclavicle -5.24792e-014 -3.81667e-014
lhumerus 27.2934 16.8457 -27.0424
lradius 33.7067
lwrist 48.295
lhand -26.1097 -20.2788
lfingers 7.12502
lthumb 0.439757 9.70045
rfemur -1.6941 2.52005 -6.00651
rtibia 3.37916
rfoot -43.0933 -10.0103
rtoes 55.1819
lfemur -20.9456 1.60486 -30.7565
ltibia 13.0009
lfoot -11.9097 8.1342
ltoes 6.69697
11
root 3.8155 17.5246 3.93393 20.5727 -12.0947 1.80211
lowerback -12.9066 2.87875 4.18812
upperback -14.8998 3.43268 -0.445948
thorax -8.54599 1.24497 -2.61262
lowerneck -1.72977 18.1143 13.4712
upperneck 10.2793 23.1693 4.71268
head 4.34417 12.118 0.703291
rclavicle 2.36554e-014 -2.38542e-015
rhumerus 0.990279 -19.2377 23.2808
rradius 122.143
rwrist -56.4453
rhand -5.51437 -46.9164
rfingers 7.12502
rthumb 20.2991 -75.8757
lclavicle 2.36554e-014 -2.38542e-015
lhumerus 27.0956 16.9219 -27.1318
lradius 33.6676
lwrist 48.127
lhand -26.0964 -20.2939
lfingers 7.12502
lthumb 0.452626 9.68533
rfemur -1.75822 2.51228 -6.08277
rtibia 3.5326
rfoot -43.1128 -9.63007
rtoes 55.1647
lfemur -20.9219 1.60617 -30.8385
ltibia 12.9498
lfoot -11.853 8.13763
ltoes 6.3665
12
root 3.81576 17.5226 3.93458 20.5672 -12.0414 1.81139
lowerback -12.8998 2.87769 4.09481
upperback -14.7541 3.43509 -0.478383
thorax -8.38042 1.26093 -2.59126
lowerneck -2.53383 18.1857 13.4436
upperneck 10.5893 23.1059 4.86679
head 4.54405 12.1054 0.842492
rclavicle 1.19271e-015 3.18055e-015
rhumerus 0.789359 -19.6353 23.3696
rradius 122.067
rwrist -56.5388
rhand -5.20762 -46.8411
rfingers 7.12502
rthumb 20.5939 -75.7687
lclavicle 1.19271e-015 3.18055e-015
lhumerus 27.1297 17.2904 -27.0234
lradius 33.5893
lwrist 47.8897
lhand -25.7686 -20.3018
lfingers 7.12502
lthumb 0.769202 9.67651
rfemur -1.88118 2.46642 -6.05958
rtibia 3.89896
rfoot -43.0712 -9.13724
rtoes 55.3063
lfemur -20.8578 1.64071 -30.8562
ltibia 12.8613
lfoot -11.8233 8.05638
ltoes 5.96197
13
root 3.81631 17.5223 3.93596 20.5595 -12.0278 1.7854
lowerback -12.8712 2.87826 4.08736
upperback -14.779 3.43912 -0.467027
thorax -8.42589 1.26285 -2.5769
lowerneck -2.58129 18.1798 13.4179
upperneck 10.7149 23.0756 4.98757
head 4.5735 12.101 0.887312
rclavicle -3.02153e-014 -3.49861e-014
rhumerus 0.848912 -19.6795 23.3272
rradius 122.013
rwrist -56.6222
rhand -4.93258 -46.7625
rfingers 7.12502
rthumb 20.8582 -75.6613
lclavicle -3.02153e-014 -3.49861e-014
lhumerus 27.1972 17.3257 -26.9315
lradius 33.548
lwrist 47.7924
lhand -26.4644 -20.1171
lfingers 7.12502
lthumb 0.0972196 9.86261
rfemur -2.03467 2.4701 -6.00523
rtibia 4.17667
rfoot -43.0005 -9.12782
rtoes 55.3879
lfemur -20.8126 1.62776 -30.8236
ltibia 12.8001
lfoot -11.8014 8.05955
ltoes 6.01301
